<svg id="eHuTXo1jNgL1" xmlns="http://www.w3.org/2000/svg" xmlns:xlink="http://www.w3.org/1999/xlink" viewBox="0 0 152 164" shape-rendering="geometricPrecision" text-rendering="geometricPrecision"><g transform="matrix(.1 0 0-.1 0 164)"><path d="M613,1395c-159-43-283-154-353-315-19-44-25-77-28-168-2-65,1-132,7-157c28-113,83-216,59-112-13,55-3,110,29,170c57,104,131,143,423,221c301,81,430,129,430,160c0,23-117,124-179,156-116,58-271,76-388,45Zm306-44c100-35,217-123,205-154-3-8-22-22-42-31-50-21-248-80-410-121-178-45-266-88-332-162-28-32-53-68-57-80-3-13-9-23-14-23-15,0-10,192,6,248c47,159,184,291,348,337c74,21,214,14,296-14Z" fill="#c1691b"/><path d="M1253,1210c-3-80-31-142-80-174-57-38-135-61-335-101-340-67-454-126-488-253-14-54,0-130,32-174c30-44,131-105,210-129c93-28,266-24,350,9c163,65,279,198,324,373c13,50,15,84,9,154-8,97-8,130-4,245c2,41-1,83-7,92-7,14-10,3-11-42Zm-47-237c-13-72-57-146-102-170-50-28-175-43-359-43-159,0-244-13-313-46-29-15-56-24-59-21-7,8,74,65,127,88c84,38,160,58,292,79c274,43,357,69,387,122c22,39,34,35,27-9Zm44-81c0-228-140-419-353-484-57-17-87-20-177-16-101,4-114,7-182,41-89,45-99,52-132,101-19,28-26,52-26,86v46l63,21c98,34,100,34,342,43c162,6,246,14,283,25c64,20,121,72,148,138c10,26,22,47,27,47c4,0,7-22,7-48Z" fill="#c1691b"/></g><path d="M26,88q0-.1,14.6-18l21.7-8.8L83.8,56l26.6-8.6l2-3.1v-1.3l-2-4.2L100.1,29L83.8,24.5l-24.6,3-14.9,8.514306L37.3,43l-4.6,5-4.4,8L26,63.155973L26,78q0,10.1,0,10Z" fill="#c1691b" stroke="#c1691b" stroke-width="0.5"/><path d="M125.3,65.8l-1,22.7-3.7,8.9-3.3,8.309137L108.2,113.2l-8.1,7.5-10.4,2.5-8.562977,2L69.2,124.8h-7.9l-7.5-4.1-13.2-7.5v-2.6L38,105.709137L38.2,102v-4.6L50,92.6L59.2,91h10h14.6l16.3-2.5l12.3-2.6l5.5-7.9l7.4-12.2Z" fill="#c1691b" stroke="#c1691b" stroke-width="0.5"/></svg>